<mxfile host="Electron" agent="Mozilla/5.0 (X11; Linux x86_64) AppleWebKit/537.36 (KHTML, like Gecko) draw.io/28.1.2 Chrome/138.0.7204.243 Electron/37.4.0 Safari/537.36" version="28.1.2">
  <diagram name="第 1 页" id="tmshlMWUMlrlZIECY404">
    <mxGraphModel dx="994" dy="723" grid="1" gridSize="10" guides="1" tooltips="1" connect="1" arrows="1" fold="1" page="1" pageScale="1" pageWidth="827" pageHeight="1169" math="0" shadow="0">
      <root>
        <mxCell id="0" />
        <mxCell id="1" parent="0" />
        <mxCell id="7WGCEPMOwAU2Ye2StHJh-6" value="Manifests repository" style="rounded=1;whiteSpace=wrap;html=1;fillColor=#cce5ff;strokeColor=#36393d;" vertex="1" parent="1">
          <mxGeometry x="160" y="130" width="140" height="60" as="geometry" />
        </mxCell>
        <mxCell id="7WGCEPMOwAU2Ye2StHJh-7" value="Gerrit server" style="rounded=1;whiteSpace=wrap;html=1;fillColor=#cce5ff;strokeColor=#36393d;" vertex="1" parent="1">
          <mxGeometry x="360" y="130" width="140" height="60" as="geometry" />
        </mxCell>
        <mxCell id="7WGCEPMOwAU2Ye2StHJh-8" value="git repositories&lt;div&gt;(aosp source code)&lt;/div&gt;" style="rounded=1;whiteSpace=wrap;html=1;fillColor=#cce5ff;strokeColor=#36393d;" vertex="1" parent="1">
          <mxGeometry x="560" y="130" width="140" height="60" as="geometry" />
        </mxCell>
        <mxCell id="7WGCEPMOwAU2Ye2StHJh-9" value="Genkins" style="rounded=1;whiteSpace=wrap;html=1;fillColor=#cce5ff;strokeColor=#36393d;" vertex="1" parent="1">
          <mxGeometry x="360" y="230" width="140" height="60" as="geometry" />
        </mxCell>
      </root>
    </mxGraphModel>
  </diagram>
</mxfile>
